<svg xmlns="http://www.w3.org/2000/svg" xmlns:xlink="http://www.w3.org/1999/xlink" width="500" zoomAndPan="magnify" viewBox="0 0 375 374.999991" height="500" preserveAspectRatio="xMidYMid meet" version="1.2"><defs><clipPath id="aa612a6e2c"><path d="M 34.546875 45.671875 L 340.441406 45.671875 L 340.441406 329.171875 L 34.546875 329.171875 Z M 34.546875 45.671875 "/></clipPath><clipPath id="75d5363f4e"><path d="M 48.542969 37.5 L 354.4375 37.5 L 354.4375 321 L 48.542969 321 Z M 48.542969 37.5 "/></clipPath></defs><g id="008046f3cf"><g clip-rule="nonzero" clip-path="url(#aa612a6e2c)"><path style=" stroke:none;fill-rule:nonzero;fill:#000000;fill-opacity:1;" d="M 34.710938 296.023438 L 73.070312 327.222656 L 189.402344 102.269531 L 230.5625 183.480469 L 274.863281 163.804688 L 214.988281 45.675781 L 164.167969 45.675781 Z M 340.441406 148.179688 L 203.242188 237.585938 L 270.792969 262.84375 L 250.011719 221.84375 L 290.808594 195.28125 L 340.441406 293.195312 L 296.09375 329.164062 L 130.949219 241.242188 Z M 340.441406 148.179688 "/></g><g clip-rule="nonzero" clip-path="url(#75d5363f4e)"><path style=" stroke:none;fill-rule:nonzero;fill:#efb30c;fill-opacity:1;" d="M 48.710938 287.851562 L 87.066406 319.050781 L 203.398438 94.097656 L 244.558594 175.308594 L 288.859375 155.632812 L 228.984375 37.503906 L 178.164062 37.503906 Z M 354.4375 140.011719 L 217.238281 229.414062 L 284.789062 254.671875 L 264.007812 213.671875 L 304.804688 187.109375 L 354.4375 285.023438 L 310.09375 320.996094 L 144.949219 233.070312 Z M 354.4375 140.011719 "/></g></g></svg>